<svg width="650" height="392" viewBox="0 0 650 392" fill="none" xmlns="http://www.w3.org/2000/svg">
<path d="M262.803 189.299C250.065 189.299 237.069 176.044 232.163 169.417L234.334 219.833C238.597 214.231 250.258 203.028 262.803 203.028C275.349 203.028 287.492 214.231 291.996 219.833V172.02C287.573 177.78 275.542 189.299 262.803 189.299Z" fill="#7A94E0"/>
<ellipse cx="197.184" cy="196" rx="44.1841" ry="44" fill="#7A94E0"/>
<ellipse cx="328.816" cy="196" rx="44.1841" ry="44" fill="#7A94E0"/>
<path d="M460.815 34C485.218 34 505 53.6995 505 78C505 102.301 485.218 122 460.815 122C444.633 122 430.485 113.335 422.788 100.411C417.571 94.5333 406.358 85.0273 394.803 85.0273C382.257 85.0276 370.596 96.2312 366.334 101.833L366.333 101.826C358.467 113.963 344.768 122 329.184 122C304.782 122 285 102.3 285 78C285 53.6996 304.782 34.0002 329.184 34C344.693 34 358.334 41.9592 366.218 53.998C372.124 60.9789 383.563 71.2986 394.803 71.2988C406.647 71.2988 417.878 61.3386 422.952 55.3105C430.685 42.5403 444.749 34.0002 460.815 34Z" fill="url(#paint0_linear_170_363)"/>
<path d="M460.815 270C485.218 270 505 289.699 505 314C505 338.301 485.218 358 460.815 358C444.633 358 430.485 349.335 422.788 336.411C417.571 330.533 406.358 321.027 394.803 321.027C382.257 321.028 370.596 332.231 366.334 337.833L366.333 337.826C358.467 349.963 344.768 358 329.184 358C304.782 358 285 338.3 285 314C285 289.7 304.782 270 329.184 270C344.693 270 358.334 277.959 366.218 289.998C372.124 296.979 383.563 307.299 394.803 307.299C406.647 307.299 417.878 297.339 422.952 291.311C430.685 278.54 444.749 270 460.815 270Z" fill="url(#paint1_linear_170_363)"/>
<circle cx="65" cy="196" r="44" fill="#7A94E0"/>
<circle cx="461" cy="196" r="44" fill="#354B90"/>
<circle cx="593" cy="78" r="44" fill="#1C2E68"/>
<circle cx="593" cy="196" r="44" fill="#1C2E68"/>
<circle cx="593" cy="314" r="44" fill="#1C2E68"/>
<defs>
<linearGradient id="paint0_linear_170_363" x1="285" y1="78" x2="505.402" y2="78" gradientUnits="userSpaceOnUse">
<stop stop-color="#7A94E0"/>
<stop offset="1" stop-color="#354B90"/>
</linearGradient>
<linearGradient id="paint1_linear_170_363" x1="285" y1="314" x2="505.402" y2="314" gradientUnits="userSpaceOnUse">
<stop stop-color="#7A94E0"/>
<stop offset="1" stop-color="#354B90"/>
</linearGradient>
</defs>
</svg>
